<?xml version="1.0" standalone="no"?>
<!DOCTYPE svg PUBLIC "-//W3C//DTD SVG 20010904//EN"
 "http://www.w3.org/TR/2001/REC-SVG-20010904/DTD/svg10.dtd">
<svg version="1.0" xmlns="http://www.w3.org/2000/svg"
 width="960.000000pt" height="960.000000pt" viewBox="0 0 960.000000 960.000000"
 preserveAspectRatio="xMidYMid meet">

<g transform="translate(0.000000,960.000000) scale(0.100000,-0.100000)"
fill="#000000" stroke="none">
<path d="M3455 7438 c-61 -22 -119 -75 -522 -480 -460 -462 -458 -458 -456
-583 1 -76 17 -125 59 -174 90 -107 229 -135 353 -72 56 29 880 859 911 918
36 68 36 177 0 247 -28 55 -102 125 -152 143 -41 14 -153 15 -193 1z"/>
<path d="M2031 7130 c-24 -5 -60 -20 -80 -33 -47 -32 -579 -564 -596 -597 -45
-90 -39 -198 17 -286 35 -56 46 -65 112 -100 71 -37 145 -42 221 -14 56 21 80
43 346 309 272 272 287 289 309 349 41 112 10 230 -81 310 -65 58 -157 81
-248 62z"/>
<path d="M4275 7124 c-45 -14 -79 -45 -322 -286 -306 -305 -316 -319 -315
-439 1 -83 30 -146 95 -206 77 -71 180 -90 284 -52 53 20 82 45 321 283 298
296 312 315 312 430 0 157 -105 270 -261 281 -43 3 -81 0 -114 -11z"/>
<path d="M4835 6588 c-40 -15 -83 -45 -125 -89 -57 -58 -352 -368 -418 -439
-34 -36 -70 -83 -81 -105 -53 -112 -27 -262 59 -344 54 -51 89 -71 148 -86
118 -30 227 10 334 124 34 36 136 144 226 239 209 219 208 217 240 277 23 43
27 62 27 135 0 75 -3 90 -29 133 -34 59 -87 111 -141 140 -47 24 -191 34 -240
15z"/>
<path d="M1950 5945 c-46 -21 -127 -98 -478 -448 -306 -305 -431 -436 -450
-472 -22 -42 -26 -63 -26 -130 0 -93 12 -123 81 -196 75 -81 214 -107 315 -60
62 30 897 862 928 925 67 139 10 307 -126 376 -74 37 -172 39 -244 5z"/>
<path d="M5113 5578 c-92 -227 -290 -730 -298 -756 l-7 -23 117 3 117 3 23 60
22 60 165 3 164 2 17 -52 c26 -83 19 -79 154 -76 l121 3 -57 140 c-31 77 -60
145 -64 151 -4 7 -22 52 -41 100 -40 102 -173 428 -201 492 l-19 42 -76 0 -76
0 -61 -152z m179 -325 c20 -54 34 -101 31 -105 -7 -13 -143 -9 -143 4 0 19 64
198 71 198 3 0 22 -44 41 -97z"/>
<path d="M5786 5701 c-3 -4 -4 -210 -3 -457 l2 -449 245 0 245 0 55 27 c73 36
107 70 139 137 37 79 36 178 -1 242 -24 41 -46 63 -87 88 -11 7 -7 17 18 48
94 117 49 287 -94 354 -35 16 -67 19 -277 19 -130 0 -239 -4 -242 -9z m432
-203 c19 -19 15 -82 -7 -102 -15 -14 -35 -16 -112 -14 l-94 3 -3 63 -3 62 104
0 c67 0 107 -4 115 -12z m35 -336 c24 -26 32 -77 17 -112 -17 -40 -61 -52
-175 -48 l-90 3 -3 88 -3 87 119 0 c102 0 121 -3 135 -18z"/>
<path d="M6629 5708 c-5 -9 -7 -769 -2 -835 l5 -83 212 0 c233 0 300 10 367
54 74 50 128 152 129 245 0 63 -22 113 -76 167 l-52 52 24 23 c54 51 69 171
30 247 -21 41 -71 89 -117 112 -35 18 -60 20 -279 20 -132 0 -241 -1 -241 -2z
m434 -220 c23 -27 22 -49 -4 -82 -20 -26 -23 -27 -118 -24 l-96 3 -3 54 c-2
29 -1 59 1 65 3 7 37 10 103 8 85 -3 101 -6 117 -24z m32 -333 c42 -41 28
-123 -24 -145 -16 -6 -70 -10 -127 -8 l-99 3 -3 74 c-2 41 -1 80 2 88 4 10 33
13 116 13 104 0 112 -1 135 -25z"/>
<path d="M1955 4798 c-55 -20 -88 -49 -343 -302 -286 -283 -305 -309 -305
-416 0 -217 220 -354 411 -256 65 34 541 513 576 580 37 69 37 171 0 244 -62
125 -217 193 -339 150z"/>
<path d="M4867 4559 c-5 -9 -7 -36 -5 -60 3 -40 6 -44 31 -47 15 -2 27 1 27 7
0 6 -9 11 -19 11 -17 0 -20 8 -23 53 -2 34 -6 46 -11 36z"/>
<path d="M5000 4510 l0 -60 35 0 c19 0 35 5 35 10 0 6 -14 10 -31 10 -24 0
-30 4 -27 18 2 11 11 16 25 14 12 -2 24 2 28 8 4 6 -6 10 -25 10 -25 0 -31 4
-28 18 2 12 11 16 31 14 15 -2 27 1 27 7 0 6 -16 11 -35 11 l-35 0 0 -60z"/>
<path d="M5230 4559 c0 -6 7 -9 15 -5 12 4 15 -5 15 -50 0 -34 4 -53 10 -49 6
3 10 25 10 47 0 27 6 45 18 54 15 12 12 13 -25 14 -25 0 -43 -5 -43 -11z"/>
<path d="M5392 4554 c-31 -21 -30 -69 3 -90 29 -19 60 -11 81 21 24 37 -7 84
-56 85 -3 0 -16 -7 -28 -16z m74 -30 c9 -35 -15 -59 -50 -50 -20 5 -26 13 -26
35 0 35 6 41 41 41 22 0 30 -6 35 -26z"/>
<path d="M5561 4508 c1 -35 4 -53 6 -41 3 16 13 23 35 25 64 6 52 78 -13 78
l-29 0 1 -62z m66 25 c7 -17 -13 -33 -39 -33 -12 0 -18 8 -18 23 0 13 3 26 6
29 9 10 45 -4 51 -19z"/>
<path d="M5815 4518 c-14 -28 -22 -54 -19 -57 4 -3 9 0 11 7 7 18 64 15 79 -5
23 -30 16 4 -11 57 -14 28 -28 50 -30 50 -3 0 -16 -23 -30 -52z m45 -9 c0 -10
-7 -19 -15 -19 -15 0 -21 31 -9 43 11 10 24 -3 24 -24z"/>
<path d="M5968 4565 c-4 -6 -4 -30 -1 -54 5 -33 11 -45 30 -52 44 -16 63 4 61
64 l-2 52 -3 -47 c-4 -41 -8 -49 -29 -54 -34 -9 -42 2 -46 56 -2 25 -6 40 -10
35z"/>
<path d="M6230 4510 c0 -59 0 -60 28 -60 16 0 36 6 46 13 16 12 17 17 6 37 -9
17 -9 24 0 30 19 12 -17 40 -51 40 -29 0 -29 0 -29 -60z m60 24 c0 -8 -10 -14
-25 -14 -23 0 -34 18 -19 32 10 10 44 -4 44 -18z m8 -46 c-7 -20 -58 -23 -58
-4 0 11 10 16 31 16 20 0 29 -4 27 -12z"/>
<path d="M6402 4554 c-50 -35 -5 -113 55 -98 29 8 46 49 32 77 -22 41 -50 47
-87 21z m74 -30 c9 -35 -15 -59 -50 -50 -20 5 -26 13 -26 35 0 35 6 41 41 41
22 0 30 -6 35 -26z"/>
<path d="M6572 4509 c1 -49 2 -54 5 -21 2 23 7 42 11 42 4 0 17 -16 30 -35 12
-19 27 -35 32 -35 6 0 9 23 8 53 l-1 52 -6 -45 -6 -45 -23 36 c-12 20 -29 42
-37 49 -13 11 -15 4 -13 -51z"/>
<path d="M6830 4509 c0 -37 4 -58 10 -54 6 3 10 13 10 21 0 8 10 14 23 14 25
0 47 17 47 36 0 22 -31 44 -61 44 -29 0 -29 0 -29 -61z m70 21 c0 -16 -18 -30
-41 -30 -5 0 -9 13 -9 29 0 25 3 28 25 23 15 -3 25 -11 25 -22z"/>
<path d="M6991 4508 c0 -48 2 -58 9 -40 5 12 16 22 23 22 8 0 22 -10 31 -22
l17 -23 -6 27 c-3 15 -1 30 5 33 30 18 -7 65 -51 65 l-29 0 1 -62z m69 22 c0
-18 -19 -30 -46 -30 -13 0 -20 40 -9 52 12 12 55 -5 55 -22z"/>
<path d="M7150 4516 c0 -31 5 -56 10 -56 6 0 10 22 10 49 0 28 -4 53 -10 56
-6 4 -10 -15 -10 -49z"/>
<path d="M7254 4545 c20 -31 20 -44 -1 -67 -9 -10 -14 -21 -10 -24 3 -3 14 3
23 15 l18 21 23 -22 c27 -25 30 -18 6 18 -15 24 -15 27 1 55 9 16 13 29 7 29
-6 0 -16 -10 -22 -22 l-12 -22 -15 22 c-8 12 -19 22 -24 22 -6 0 -3 -11 6 -25z"/>
<path d="M4780 4294 c-30 -14 -75 -46 -100 -72 -179 -186 -442 -463 -467 -492
-42 -49 -59 -85 -73 -156 -21 -107 23 -225 110 -294 83 -65 182 -89 272 -65
76 19 119 48 198 131 126 132 416 439 443 469 34 37 67 134 67 196 0 114 -75
230 -183 283 -76 37 -188 37 -267 0z"/>
<path d="M3705 4261 c-16 -4 -48 -18 -70 -29 -57 -31 -886 -866 -910 -917 -24
-50 -31 -153 -15 -209 15 -54 78 -128 138 -164 41 -23 58 -27 127 -27 63 0 90
5 126 23 58 28 891 857 922 917 28 56 34 158 13 223 -22 67 -83 134 -144 160
-56 24 -143 35 -187 23z"/>
<path d="M2494 4217 c-38 -18 -112 -86 -303 -278 -140 -140 -264 -270 -276
-290 -50 -77 -53 -202 -8 -277 62 -100 140 -146 248 -146 117 0 136 13 427
303 222 220 261 263 284 314 46 103 26 225 -53 313 -69 78 -221 107 -319 61z"/>
</g>
</svg>
